<?xml version="1.0" standalone="no"?>
<!DOCTYPE svg PUBLIC "-//W3C//DTD SVG 20010904//EN"
 "http://www.w3.org/TR/2001/REC-SVG-20010904/DTD/svg10.dtd">
<svg version="1.0" xmlns="http://www.w3.org/2000/svg"
 width="128.000000pt" height="128.000000pt" viewBox="0 0 128.000000 128.000000"
 preserveAspectRatio="xMidYMid meet">
<metadata>
Created by potrace 1.16, written by Peter Selinger 2001-2019
</metadata>
<g transform="translate(0.000000,128.000000) scale(0.100000,-0.100000)"
fill="#000000" stroke="none">
<path d="M0 735 c0 -491 2 -545 16 -545 20 0 53 39 54 63 0 9 6 17 14 17 7 0
19 7 27 16 7 9 22 14 35 11 20 -3 23 1 27 37 8 69 14 85 61 140 43 49 46 57
46 109 0 46 3 57 19 62 16 5 18 13 14 45 -5 36 -3 40 28 59 39 24 99 28 99 7
0 -8 -15 -16 -36 -19 -20 -3 -42 -11 -50 -18 -21 -17 -17 -56 8 -73 l22 -16
-22 0 c-13 0 -22 -6 -22 -15 0 -9 -6 -18 -14 -21 -8 -3 -17 -22 -21 -41 -4
-23 -24 -57 -55 -91 -51 -57 -60 -83 -60 -168 0 -30 -4 -54 -10 -54 -5 0 -10
-13 -10 -30 0 -16 -4 -30 -10 -30 -5 0 -10 -9 -10 -19 0 -11 -4 -22 -9 -25 -4
-3 -7 -17 -6 -30 2 -14 -5 -32 -16 -42 -10 -9 -19 -28 -19 -41 l0 -23 430 0
430 0 -3 21 c-2 11 -8 24 -13 27 -23 17 -34 57 -34 122 l0 70 64 0 65 0 3 46
c4 57 26 78 56 51 10 -9 21 -17 25 -17 3 0 7 28 9 63 3 62 3 62 36 65 29 3 32
6 32 38 0 33 1 34 40 34 l40 0 0 380 0 380 -640 0 -640 0 0 -545z m748 433
c18 -5 44 -25 58 -43 13 -18 36 -36 49 -39 14 -4 25 -10 25 -15 0 -5 -19 -2
-42 6 -28 10 -97 17 -198 20 -148 4 -157 4 -200 -19 -36 -18 -44 -28 -42 -45
2 -13 -1 -23 -7 -23 -6 0 -10 -24 -10 -56 1 -30 -2 -58 -6 -62 -4 -4 -5 35 -4
87 4 93 4 93 39 123 42 36 104 69 145 77 39 9 151 2 193 -11z m-166 -518 c95
-44 178 -78 185 -76 19 8 43 -22 43 -52 0 -15 3 -44 6 -64 6 -34 4 -38 -15
-38 -14 0 -25 9 -31 24 -5 13 -21 30 -36 38 -41 20 -44 42 -5 36 17 -2 31 -2
31 1 0 3 -41 24 -90 46 -62 28 -86 43 -79 51 6 8 -19 24 -86 54 -82 37 -121
60 -101 60 3 0 83 -36 178 -80z m-4 -175 c3 -3 -6 -5 -19 -5 -14 0 15 -17 71
-41 76 -33 103 -39 136 -35 34 4 46 1 72 -22 31 -26 32 -29 38 -137 l6 -110
-36 -38 c-35 -38 -36 -38 -36 -13 0 38 -20 32 -21 -6 l-1 -33 -7 30 c-6 27
-11 31 -56 37 -28 3 -78 7 -112 7 -98 1 -75 21 25 21 101 1 132 17 132 69 0
17 4 31 9 31 4 0 6 11 3 25 l-4 25 -119 -1 c-110 -1 -119 -2 -119 -20 0 -14
-7 -19 -30 -19 -16 0 -29 3 -29 8 1 4 1 18 -1 32 -1 22 -2 23 -9 6 -7 -19 -8
-18 -16 5 -7 17 -10 -1 -12 -68 -2 -51 -8 -93 -13 -93 -6 0 -10 -9 -10 -20 0
-26 -15 -25 -41 1 -14 14 -19 29 -16 45 3 18 0 24 -14 24 -27 0 -47 54 -52
146 -5 81 3 114 28 114 7 0 12 8 10 18 -1 9 11 31 27 48 l29 31 91 -28 c50
-16 93 -31 96 -34z"/>
</g>
</svg>
